<svg xmlns="http://www.w3.org/2000/svg" viewBox="0 0 360 340" width="360" height="340" font-family="Segoe UI,Arial,sans-serif" font-size="14"><rect width="360" height="340" fill="#fff"/><g stroke="#333" stroke-width="1.3"><line x1="50" y1="300" x2="330" y2="300"/><line x1="50" y1="300" x2="50" y2="20"/></g><line x1="90" y1="296" x2="90" y2="304" stroke="#333"/><text x="90" y="319" text-anchor="middle" fill="#333">1</text><line x1="130" y1="296" x2="130" y2="304" stroke="#333"/><text x="130" y="319" text-anchor="middle" fill="#333">2</text><line x1="170" y1="296" x2="170" y2="304" stroke="#333"/><text x="170" y="319" text-anchor="middle" fill="#333">3</text><line x1="210" y1="296" x2="210" y2="304" stroke="#333"/><text x="210" y="319" text-anchor="middle" fill="#333">4</text><line x1="250" y1="296" x2="250" y2="304" stroke="#333"/><text x="250" y="319" text-anchor="middle" fill="#333">5</text><line x1="290" y1="296" x2="290" y2="304" stroke="#333"/><text x="290" y="319" text-anchor="middle" fill="#333">6</text><line x1="330" y1="296" x2="330" y2="304" stroke="#333"/><text x="330" y="319" text-anchor="middle" fill="#333">7</text><line x1="46" y1="260" x2="54" y2="260" stroke="#333"/><text x="42" y="265" text-anchor="end" fill="#333">1</text><line x1="46" y1="220" x2="54" y2="220" stroke="#333"/><text x="42" y="225" text-anchor="end" fill="#333">2</text><line x1="46" y1="180" x2="54" y2="180" stroke="#333"/><text x="42" y="185" text-anchor="end" fill="#333">3</text><line x1="46" y1="140" x2="54" y2="140" stroke="#333"/><text x="42" y="145" text-anchor="end" fill="#333">4</text><line x1="46" y1="100" x2="54" y2="100" stroke="#333"/><text x="42" y="105" text-anchor="end" fill="#333">5</text><line x1="46" y1="60" x2="54" y2="60" stroke="#333"/><text x="42" y="65" text-anchor="end" fill="#333">6</text><line x1="46" y1="20" x2="54" y2="20" stroke="#333"/><text x="42" y="25" text-anchor="end" fill="#333">7</text><text x="324" y="319" fill="#333">x</text><text x="58" y="32" fill="#333">y</text><path d="M50,300 L290,300 A240,240 0 0 0 50,60 Z" fill="#d6e4ff" stroke="#1d4ed8" stroke-width="2"/><path d="M210,300 A160,160 0 0 0 50,140" fill="none" stroke="#136f3a" stroke-width="2" stroke-dasharray="6 4"/><line x1="50" y1="300" x2="170" y2="140" stroke="#999" stroke-dasharray="3 3"/><circle cx="170" cy="140" r="5.5" fill="#a12a2a" stroke="#fff"/><text x="180" y="132" fill="#a12a2a" font-weight="700">(3,4)  R=6: nghiệm</text><circle cx="146.0" cy="172.0" r="5.5" fill="#136f3a" stroke="#fff"/><text x="134.0" y="192.0" fill="#136f3a" font-weight="700">(2.4;3.2)  R=4</text><text x="70" y="40" fill="#1d4ed8" font-weight="700">miền: x²+y² ≤ 36, x,y ≥ 0</text></svg>